<svg xmlns="http://www.w3.org/2000/svg" viewBox="0 0 755.6 150.8">
  <path d="M283.6,51.3c-11.6-11.4-25.73-17.1-42.4-17.1s-30.97,5.73-42.5,17.2c-11.53,11.47-17.3,24.93-17.3,40.4s5.57,28.67,16.7,40.8,25.5,18.2,43.1,18.2c11.87,0,22.5-3.03,31.9-9.1,9.4-6.07,16.4-13.5,21-22.3,4.6-8.8,6.9-17.87,6.9-27.2,0-15.87-5.8-29.5-17.4-40.9Zm-14.6,68.7c-7.47,7.87-16.73,11.8-27.8,11.8s-20.5-3.97-27.9-11.9c-7.4-7.93-11.1-17.1-11.1-27.5s3.67-19.53,11-27.4,16.67-11.8,28-11.8,20.67,3.93,28,11.8,11,16.93,11,27.2-3.73,19.93-11.2,27.8Z"/>
  <path d="M412,0V50.8h-.4c-4-5.07-9.37-9.1-16.1-12.1-6.74-3-13.9-4.5-21.5-4.5-9.34,0-17.8,1.77-25.4,5.3-7.6,3.53-13.67,8.2-18.2,14-4.54,5.8-8,12.1-10.4,18.9-2.4,6.8-3.6,13.67-3.6,20.6,0,10,2.16,19.3,6.5,27.9,4.33,8.6,11,15.73,20,21.4s19.36,8.5,31.1,8.5c17.2,0,30.26-6.2,39.2-18.6h.4v15.8h19.2V0h-20.8Zm-9.6,120.3c-7.47,7.67-16.6,11.5-27.4,11.5s-19.64-3.93-26.9-11.8c-7.27-7.87-10.9-16.93-10.9-27.2s3.36-18.93,10.1-27.2c6.73-8.27,16.03-12.4,27.9-12.4,10.93,0,20.06,3.7,27.4,11.1,7.33,7.4,11,16.9,11,28.5,0,10.67-3.74,19.83-11.2,27.5Z"/>
  <path d="M530.4,126.4c-5.6,3.6-12,5.4-19.2,5.4-19.34,0-31-8.33-35-25l91.2-20.2c-2-14.4-8.3-26.73-18.9-37-10.6-10.27-23.17-15.4-37.7-15.4-15.74,0-29.14,5.6-40.2,16.8-11.07,11.2-16.6,25-16.6,41.4s5.5,29.57,16.5,41.1c11,11.53,24.3,17.3,39.9,17.3,6.4,0,12.76-1.07,19.1-3.2,6.33-2.13,12.76-6.17,19.3-12.1,6.53-5.93,11.46-13.37,14.8-22.3h-20.8c-2.67,5.2-6.8,9.6-12.4,13.2Zm-27.8-72.4c9.46-2.4,17.9-1.7,25.3,2.1s12.7,10.03,15.9,18.7l-69,15.6c-1.87-19.2,7.4-31.33,27.8-36.4Z"/>
  <path d="M749.4,54.2c-7.74-13.33-20.74-20-39-20-5.74,0-10.87,.63-15.4,1.9-4.54,1.27-8.24,3.1-11.1,5.5-2.87,2.4-4.9,4.3-6.1,5.7-1.2,1.4-2.54,3.23-4,5.5-2.67-5.87-7.27-10.43-13.8-13.7-6.54-3.27-13.4-4.9-20.6-4.9-10.8,0-17.4,.2-19.8,.6-2.4,.4-6.47,2.13-12.2,5.2-3.6,2-6.74,4.43-9.4,7.3-2.67,2.87-4.6,5.53-5.8,8-1.2,2.47-2.14,5.07-2.8,7.8-.67,2.73-1.04,4.6-1.1,5.6-.07,1-.1,1.77-.1,2.3l-.2,77h20.8v-61.8c0-22,9.13-33,27.4-33,9.2,0,16.06,3.47,20.6,10.4,3.33,5.47,4.86,13.07,4.6,22.8v61.6h20.8V82.5c0-.33,.1-1.7,.3-4.1,.2-2.4,.43-4.03,.7-4.9,.26-.87,.7-2.43,1.3-4.7,.6-2.27,1.33-3.93,2.2-5,.86-1.07,1.96-2.4,3.3-4,1.33-1.6,2.86-2.8,4.6-3.6,1.73-.8,3.8-1.5,6.2-2.1,2.4-.6,5-.9,7.8-.9,17.46,0,26.2,11.07,26.2,33.2v61.6h20.8V81.2c0-10.53-2.07-19.53-6.2-27Z"/>
  <path d="M130.4,94v33h-13v-6.89c-10.2,12.66-18.89,19.34-28,23.89-10.9,5.45-20.2,6.8-32.6,6.8-17.2,0-30.97-5.9-41.3-17.7C5.17,121.3,0,107.73,0,92.4s5.27-29.37,15.8-40.9c10.53-11.53,24.27-17.3,41.2-17.3,14.27,0,26.27,4.2,36,12.6,9.73,8.4,15.87,17.47,18.4,27.2h-23c-6.8-13.87-17.2-20.8-31.2-20.8-8.4,0-15.47,2.17-21.2,6.5-5.73,4.33-9.7,9.33-11.9,15-2.2,5.67-3.3,11.57-3.3,17.7,0,10.4,3.2,19.57,9.6,27.5s15.21,11.56,26.4,11.9c6.6,.2,14.53-1.03,17.6-1.8,8-2,24-12,29.14-24h-10.14v-12h37Z"/>
  <circle cx="152.9" cy="75.5" r="15.5"/>
</svg>