<?xml version="1.0" encoding="UTF-8"?>
<svg id="b" data-name="Слой 2" xmlns="http://www.w3.org/2000/svg" viewBox="0 0 168.4 116.6" fill="white">
  <g id="c" data-name="Слой 1">
    <path d="M130.4,59.8v33h-13v-6.89c-10.2,12.66-18.89,19.34-28,23.89-10.9,5.45-20.2,6.8-32.6,6.8-17.2,0-30.97-5.9-41.3-17.7C5.17,87.1,0,73.53,0,58.2S5.27,28.83,15.8,17.3C26.33,5.77,40.07,0,57,0c14.27,0,26.27,4.2,36,12.6,9.73,8.4,15.87,17.47,18.4,27.2h-23c-6.8-13.87-17.2-20.8-31.2-20.8-8.4,0-15.47,2.17-21.2,6.5-5.73,4.33-9.7,9.33-11.9,15-2.2,5.67-3.3,11.57-3.3,17.7,0,10.4,3.2,19.57,9.6,27.5s15.21,11.56,26.4,11.9c6.6,.2,14.53-1.03,17.6-1.8,8-2,24-12,29.14-24h-10.14v-12h37Z"/>
    <circle cx="152.9" cy="41.3" r="15.5"/>
  </g>
</svg>